<svg xmlns="http://www.w3.org/2000/svg" viewBox="0 0 594 216"><defs><style>.cls-1{fill:#74a1bf;}.cls-2{fill:#5c7d96;}.cls-2,.cls-6{stroke:#231f20;}.cls-2,.cls-37,.cls-6{stroke-miterlimit:10;}.cls-3{opacity:0.4;}.cls-4{font-size:18px;}.cls-18,.cls-26,.cls-28,.cls-31,.cls-36,.cls-38,.cls-4,.cls-7,.cls-9{fill:#231f20;}.cls-18,.cls-28,.cls-31,.cls-4,.cls-9{font-family:PTSans-CaptionBold, PT Sans Caption;font-weight:700;}.cls-5{fill:#fff;}.cls-37,.cls-6{fill:none;}.cls-7{font-size:15px;}.cls-13,.cls-26,.cls-7{font-family:PTSans-Caption, PT Sans Caption;}.cls-8{letter-spacing:-0.07em;}.cls-9{font-size:11px;}.cls-10{letter-spacing:-0.04em;}.cls-11{letter-spacing:-0.08em;}.cls-12{letter-spacing:-0.03em;}.cls-13{font-weight:400;}.cls-14{letter-spacing:-0.03em;}.cls-15{letter-spacing:-0.01em;}.cls-16{letter-spacing:-0.01em;}.cls-17{letter-spacing:-0.05em;}.cls-18{font-size:12px;}.cls-19{letter-spacing:0.03em;}.cls-20{letter-spacing:-0.01em;}.cls-21{letter-spacing:-0.05em;}.cls-22{letter-spacing:-0.03em;}.cls-23{letter-spacing:-0.02em;}.cls-24{letter-spacing:-0.04em;}.cls-25{letter-spacing:-0.06em;}.cls-26{font-size:9px;}.cls-27{letter-spacing:-0.01em;}.cls-28{font-size:17px;letter-spacing:-0.08em;}.cls-29{letter-spacing:-0.1em;}.cls-30{letter-spacing:-0.03em;}.cls-31{font-size:8px;}.cls-32{letter-spacing:-0.04em;}.cls-33{letter-spacing:-0.02em;}.cls-34{letter-spacing:-0.04em;}.cls-35{letter-spacing:0em;}.cls-36,.cls-38{font-size:24px;}.cls-36{font-family:MICREncoding, MICR Encoding;}.cls-37{stroke:#45b649;}.cls-38{font-family:Helvetica;}</style></defs><title>check</title><g id="Solid"><rect class="cls-1" width="594" height="216"/></g><g id="Pattern"><rect class="cls-2" x="5.64" y="6.06" width="582.57" height="204.4"/></g><g id="Lines" class="cls-3"><text class="cls-4" transform="translate(447.68 83.13)">$</text><rect class="cls-5" x="461.5" y="67.83" width="101.45" height="19.14"/><line class="cls-6" x1="22.62" y1="116.58" x2="473.41" y2="116.58"/><text class="cls-7" transform="translate(478.57 118.5)">DOL<tspan class="cls-8" x="30.42" y="0">L</tspan><tspan x="37.79" y="0">ARS</tspan></text><text class="cls-9" transform="translate(18.21 129.87)">Uncle <tspan class="cls-10" x="33.26" y="0">P</tspan><tspan x="39.65" y="0">ennybag</tspan><tspan class="cls-11" x="86.16" y="0">’</tspan><tspan x="87.97" y="0">s Ban</tspan><tspan class="cls-12" x="116.75" y="0">k</tspan><tspan class="cls-13"><tspan class="cls-14" x="0" y="13.2">O</tspan><tspan x="7.89" y="13.2">x</tspan><tspan class="cls-15" x="14.4" y="13.2">f</tspan><tspan x="18.28" y="13.2">ord Str</tspan><tspan class="cls-16" x="54.55" y="13.2">e</tspan><tspan x="61" y="13.2">et</tspan><tspan x="0" y="26.4">Gotham</tspan><tspan class="cls-14" x="42.62" y="26.4">,</tspan><tspan x="44.7" y="26.4"> </tspan><tspan class="cls-12" x="47.9" y="26.4">C</tspan><tspan x="54.38" y="26.4">onfusion</tspan><tspan class="cls-14" x="102.43" y="26.4">,</tspan><tspan x="104.51" y="26.4" xml:space="preserve"> 7777</tspan><tspan class="cls-17" x="133.85" y="26.4">7</tspan></tspan></text><text class="cls-18" transform="translate(22.62 20.04)">A<tspan class="cls-19" x="7.9" y="0">r</tspan><tspan x="13.19" y="0">t Ist</tspan><tspan class="cls-13"><tspan x="0" y="14.4">123 Bris</tspan><tspan class="cls-20" x="46.92" y="14.4">t</tspan><tspan x="51.65" y="14.4">olboard </tspan><tspan class="cls-21" x="100.95" y="14.4">R</tspan><tspan x="108.21" y="14.4">oad</tspan><tspan x="0" y="28.8">Illustrapolis</tspan><tspan class="cls-22" x="71.92" y="28.8">,</tspan><tspan class="cls-23" x="74.18" y="28.8"> </tspan><tspan class="cls-24" x="77.45" y="28.8">W</tspan><tspan x="87.9" y="28.8">onde</tspan><tspan class="cls-25" x="117.89" y="28.8">r</tspan><tspan class="cls-22" x="121.73" y="28.8">,</tspan><tspan x="123.99" y="28.8" xml:space="preserve"> 55555</tspan></tspan></text><text/><text class="cls-18" transform="translate(523.47 23.33)">12345</text><line class="cls-6" x1="372.49" y1="54.08" x2="506.04" y2="54.08"/><text class="cls-26" transform="translate(481.86 64.33)">Da<tspan class="cls-27" x="11.67" y="0">t</tspan><tspan x="15.22" y="0">e</tspan></text><text class="cls-28" transform="translate(22.62 82.43)">P<tspan class="cls-29" x="9.11" y="0">A</tspan><tspan class="cls-30" x="18.65" y="0">Y</tspan></text><line class="cls-6" x1="22.62" y1="84.01" x2="442.47" y2="84.01"/><line class="cls-6" x1="269.2" y1="110.66" x2="269.2" y2="110.99"/><text class="cls-31" transform="translate(21.5 92.57)"><tspan class="cls-32">T</tspan><tspan class="cls-33" x="4.58" y="0">O</tspan><tspan class="cls-34" x="10.28" y="0"> </tspan><tspan x="12.18" y="0">THE</tspan><tspan class="cls-33" x="27.28" y="0"> </tspan><tspan x="29.37" y="0">ORDER</tspan><tspan class="cls-33" x="55.76" y="0"> </tspan><tspan class="cls-35" x="57.85" y="0">OF</tspan></text><line class="cls-6" x1="442.47" y1="84.01" x2="442.47" y2="69.21"/><text class="cls-9" transform="translate(20.33 178.45)">FOR</text><line class="cls-6" x1="20.33" y1="184.13" x2="259.98" y2="184.13"/><line class="cls-6" x1="326.84" y1="184.13" x2="572.15" y2="184.13"/></g><g id="Codes"><text class="cls-36" transform="translate(20.33 202.91)">A012345678A</text><text class="cls-36" transform="translate(221.78 203.23)">C9876543210C</text></g><g id="Diagrams"><rect class="cls-37" x="32.67" y="189.78" width="107.49" height="14.91"/><line class="cls-37" x1="82.16" y1="189.78" x2="180.23" y2="164.82"/><text class="cls-38" transform="translate(180.23 159.72)">Routing Number </text><rect class="cls-37" x="234.78" y="189.78" width="118.8" height="16.97"/><line class="cls-37" x1="297" y1="189.78" x2="387.23" y2="167.5"/><text class="cls-38" transform="translate(386.23 161.44)">Account Number</text></g></svg>