<?xml version="1.0" encoding="UTF-8"?>
<!DOCTYPE svg PUBLIC "-//W3C//DTD SVG 1.1//EN" "http://www.w3.org/Graphics/SVG/1.1/DTD/svg11.dtd">
<svg version="1.1" xmlns="http://www.w3.org/2000/svg" xmlns:xlink="http://www.w3.org/1999/xlink" x="0" y="0" width="500" height="500" viewBox="0, 0, 500, 500">
  <g id="Color-backdrop">
    <path d="M47,0 L453,0 C478.957,0 500,21.043 500,47 L500,453 C500,478.957 478.957,500 453,500 L47,500 C21.043,500 0,478.957 0,453 L0,47 C0,21.043 21.043,0 47,0 z" fill="#5F2480"/>
  </g>
  <g id="Layer_2">
    <path d="M277.544,287.288 C263.72,287.8 252.456,289.848 235.048,291.896 C225.32,293.432 215.08,294.456 204.84,295.48 C237.096,245.304 273.96,196.152 306.728,156.728 C293.928,195.128 283.688,244.792 277.544,287.288 z M292.392,407.608 C301.608,411.704 308.264,409.656 308.264,400.44 C309.288,375.352 311.848,349.24 314.92,323.64 L332.84,326.712 C342.056,328.248 345.64,326.2 343.08,318.008 C339.496,307.256 334.376,297.528 320.552,291.384 C330.28,237.624 344.616,184.376 356.392,147.512 C359.464,139.832 360.488,132.664 360.488,126.52 C360.488,120.376 358.952,114.744 356.392,108.6 C352.808,99.896 349.736,94.264 344.616,87.608 C336.936,77.368 329.256,76.856 317.992,86.072 C264.232,131.64 193.576,230.456 155.176,297.528 C148.008,297.016 143.912,296.504 136.744,295.48 C123.432,293.432 121.384,296.504 125.48,306.232 C127.016,309.304 131.624,316.472 140.84,323.128 C135.208,333.88 131.624,342.584 128.552,350.264 C122.408,365.112 120.36,376.888 120.36,385.08 C120.36,393.272 123.432,397.88 126.504,404.024 C130.088,411.192 138.792,413.24 144.936,402.488 C156.712,381.496 167.976,355.896 181.8,331.832 C196.136,332.344 216.104,330.296 236.584,328.248 L272.424,324.664 C270.888,337.976 270.888,349.752 270.888,358.968 C271.4,388.664 281.128,401.976 292.392,407.608 z" fill="#FFFFFF"/>
  </g>
</svg>
